<svg xmlns="http://www.w3.org/2000/svg" version="1.1" xmlns:xlink="http://www.w3.org/1999/xlink" xmlns:svgjs="http://svgjs.dev/svgjs" width="2000" height="454" viewBox="0 0 2000 454"><g transform="matrix(1,0,0,1,-1.2121212121212466,-1.7744239395419186)"><svg viewBox="0 0 396 90" data-background-color="#ffffff" preserveAspectRatio="xMidYMid meet" height="454" width="2000" xmlns="http://www.w3.org/2000/svg" xmlns:xlink="http://www.w3.org/1999/xlink"><g id="tight-bounds" transform="matrix(1,0,0,1,0.2400000000000091,0.3517580496889252)"><svg viewBox="0 0 395.52 89.29648390062214" height="89.29648390062214" width="395.52"><g><svg viewBox="0 0 675.9803264716347 152.61596465390278" height="89.29648390062214" width="395.52"><g><svg viewBox="0 0 395.52 152.61596465390278" height="152.61596465390278" width="395.52"><g id="textblocktransform"><svg viewBox="0 0 395.52 152.61596465390278" height="152.61596465390278" width="395.52" id="textblock"><g><svg viewBox="0 0 395.52 152.61596465390278" height="152.61596465390278" width="395.52"><g transform="matrix(1,0,0,1,0,0)"><svg width="395.52" viewBox="2.69 -38.13 99.45 38.370000000000005" height="152.61596465390278" data-palette-color="#113f67"><path d="M15.97-33.84L15.97-33.84Q14.99-33.84 14.33-33.35 13.67-32.86 13.23-31.98 12.79-31.1 12.6-29.96 12.4-28.81 12.35-27.54L12.35-27.54 16.6-27.54 16.6-23.54 12.26-23.54 12.26-21.19 12.26 0 6.3 0 6.3-21.19 6.3-23.54 2.69-23.54 2.69-27.54 6.4-27.54Q6.54-29.64 6.98-31.57 7.42-33.5 8.37-34.94 9.33-36.38 10.96-37.26 12.6-38.13 15.09-38.13L15.09-38.13Q15.82-38.13 16.65-38.01 17.48-37.89 18.29-37.72 19.09-37.55 19.78-37.3 20.46-37.06 20.85-36.77L20.85-36.77 18.95-33.25Q18.26-33.64 17.31-33.74 16.36-33.84 15.97-33.84ZM39.74-23.19L39.74-27.78Q42.38-27.54 44.5-26.37 46.63-25.2 48.14-23.34 49.66-21.48 50.46-19.09 51.27-16.7 51.27-14.11L51.27-14.11Q51.27-12.94 51.12-11.77L51.12-11.77 34.37-11.77 34.37-16.06 45.65-16.06Q45.65-17.33 45.24-18.51 44.82-19.68 44.02-20.68 43.21-21.68 42.14-22.36 41.06-23.05 39.74-23.19L39.74-23.19ZM39.55-4.59L39.55-4.59Q40.09-4.59 40.89-4.71 41.7-4.83 42.6-5.15 43.5-5.47 44.41-5.96 45.31-6.45 45.99-7.13L45.99-7.13 48.14-3.86Q46.53-1.86 44.38-0.83 42.23 0.2 38.91 0.2L38.91 0.2Q36.23 0.2 33.88-0.9 31.54-2 29.88-3.91 28.22-5.81 27.24-8.35 26.27-10.89 26.27-13.82L26.27-13.82Q26.27-16.6 27.17-19.09 28.07-21.58 29.64-23.46 31.2-25.34 33.27-26.51 35.35-27.69 37.74-27.83L37.74-27.83 37.74-23.14Q35.94-22.8 34.76-21.68 33.59-20.56 32.93-19.12 32.27-17.68 32-16.16 31.74-14.65 31.74-13.57L31.74-13.57Q31.74-11.67 32.2-10.03 32.66-8.4 33.64-7.2 34.62-6.01 36.06-5.3 37.5-4.59 39.55-4.59ZM64.16-8.3L64.16-8.3Q64.16-6.1 65.06-5.03 65.96-3.96 67.67-3.76L67.67-3.76 67.67 0.2Q67.48 0.24 67.04 0.24L67.04 0.24Q65.38 0.24 63.84-0.2 62.3-0.63 61.13-1.61 59.96-2.59 59.3-4.2 58.64-5.81 58.64-8.15L58.64-8.15Q58.64-10.4 59.59-12.04 60.54-13.67 62.03-14.72 63.52-15.77 65.42-16.28 67.33-16.8 69.28-16.8L69.28-16.8 71.43-16.8 71.43-13.33 70.36-13.33Q69.38-13.33 68.31-13.13 67.23-12.94 66.3-12.4 65.38-11.87 64.77-10.86 64.16-9.86 64.16-8.3ZM79.34-8.54L79.34-8.15Q79.34-7.76 79.39-7.01 79.44-6.25 79.58-5.47 79.73-4.69 80.05-4.05 80.37-3.42 80.9-3.22L80.9-3.22 79.34 0.05Q78.71 0.05 78-0.24 77.29-0.54 76.63-1.07 75.97-1.61 75.51-2.27 75.04-2.93 74.8-3.71L74.8-3.71Q74.31-2.49 72.87-1.54 71.43-0.59 69.67-0.15L69.67-0.15 69.67-3.86Q70.84-4.1 71.8-4.81 72.75-5.52 73.43-6.49L73.43-6.49 73.43-16.8Q73.43-19.19 73.19-20.61 72.94-22.02 72.36-22.68 71.77-23.34 70.92-23.51 70.06-23.68 68.89-23.68L68.89-23.68Q67.82-23.68 66.87-23.41 65.91-23.14 65.11-22.78 64.3-22.41 63.69-21.97 63.08-21.53 62.79-21.29L62.79-21.29 60.59-24.66Q61.08-25.2 62.06-25.76 63.03-26.32 64.3-26.76 65.57-27.2 67.06-27.47 68.55-27.73 70.16-27.73L70.16-27.73Q71.63-27.73 73.02-27.44 74.41-27.15 75.56-26.46 76.7-25.78 77.56-24.63 78.41-23.49 78.75-21.78L78.75-21.78Q79.1-20.07 79.22-18.33 79.34-16.6 79.34-14.89L79.34-14.89 79.34-8.54ZM96.53-23.54L96.53-8.35Q96.53-6.69 96.97-5.76 97.4-4.83 98.21-4.35 99.02-3.86 100.02-3.74 101.02-3.61 102.14-3.61L102.14-3.61 102.14 0Q101.51 0.1 100.87 0.15L100.87 0.15Q100.33 0.2 99.58 0.22 98.82 0.24 98.09 0.24L98.09 0.24Q97.36 0.24 96.6 0.2 95.84 0.15 95.31 0.05L95.31 0.05Q93.64-0.24 92.72-1.39 91.79-2.54 91.33-3.93 90.86-5.32 90.74-6.64 90.62-7.96 90.62-8.69L90.62-8.69 90.62-23.54 87-23.54 87-27.54 90.62-27.54 90.62-35.35 96.53-35.35 96.53-27.54 100.92-27.54 100.92-23.54 96.53-23.54Z" opacity="1" transform="matrix(1,0,0,1,0,0)" fill="#113f67" class="wordmark-text-0" data-fill-palette-color="primary" id="text-0"></path></svg></g></svg></g></svg></g></svg></g><g transform="matrix(1,0,0,1,431.54896647163474,9.020697832569354)"><svg viewBox="0 0 244.43135999999998 134.57456898876407" height="134.57456898876407" width="244.43135999999998"><g><svg xmlns="http://www.w3.org/2000/svg" xmlns:xlink="http://www.w3.org/1999/xlink" version="1.1" x="0" y="0" viewBox="1.39 20.99 87.22 48.02000000000001" enable-background="new 0 0 90 90" xml:space="preserve" height="134.57456898876407" width="244.43135999999998" class="icon-icon-0" data-fill-palette-color="accent" id="icon-0"><rect x="1.39" y="45.49" width="23.52" height="23.52" fill="#87c0cd" data-fill-palette-color="accent"></rect><polygon points="43.294,33.24 25.263,44.51 2.604,44.51 20.638,33.24 " fill="#87c0cd" data-fill-palette-color="accent"></polygon><polygon points="64.108,44.727 25.89,68.617 25.89,45.273 64.108,21.382 " fill="#87c0cd" data-fill-palette-color="accent"></polygon><polygon points="64.728,45.49 87.394,45.49 69.36,56.76 46.704,56.76 " fill="#87c0cd" data-fill-palette-color="accent"></polygon><rect x="65.089" y="20.99" width="23.521" height="23.52" fill="#87c0cd" data-fill-palette-color="accent"></rect></svg></g></svg></g></svg></g><defs></defs></svg><rect width="395.52" height="89.29648390062214" fill="none" stroke="none" visibility="hidden"></rect></g></svg></g></svg>